# xmcd
#
# Track frame offsets: 
#        150
#        19739
#        35635
#        51775
#        67805
#        93416
#        113699
#        132647
#        145117
#        158157
#        175112
#
# Disc length: 2629 seconds
#
# Revision: 0
# Processed by: cddbd v1.5.2PL0 Copyright (c) Steve Scherf et al.
# Submitted via: ExactAudioCopy v0.95a5
#
DISCID=8f0a430b
DTITLE=Coldshot - The things we used to do
DYEAR=2001
DGENRE=Blues
TTITLE0=The things I used to do
TTITLE1=Cold Shot
TTITLE2=The wind cries Mary
TTITLE3=Pride and Joy
TTITLE4=Red House
TTITLE5=Riviera Paradise
TTITLE6=Little Wing
TTITLE7=Sharp dressed man
TTITLE8=Hard to handle
TTITLE9=Jealous again
TTITLE10=Remedy
EXTD=
EXTT0=
EXTT1=
EXTT2=
EXTT3=
EXTT4=
EXTT5=
EXTT6=
EXTT7=
EXTT8=
EXTT9=
EXTT10=
PLAYORDER=
